# xmcd CD database file
#
# Track frame offsets:
#	150
#	27102
#	68495
#	112963
#	147735
#	185401
#	216679
#	255501
#
# Disc length: 3893 seconds
#
# Revision: 0
# Processed by: cddbd v1.5.1PL0 Copyright (c) Steve Scherf et al.
# Submitted via: CDex 1.51
#
DISCID=750f3308
DTITLE=Eric Alexander, Grant Stewart -Reeds and Deeds - Wailin'
DYEAR=2005
DGENRE=Jazz
TTITLE0=Somewhere In The Night
TTITLE1=Stand Pat
TTITLE2=Big RC
TTITLE3=Born To Be Blue
TTITLE4=That's Earl, Brother
TTITLE5=Russina Lullaby
TTITLE6=The Shadow Of Your Smile
TTITLE7=Scotch Thing
EXTD=YEAR: 2005
EXTT0=
EXTT1=
EXTT2=
EXTT3=
EXTT4=
EXTT5=
EXTT6=
EXTT7=
PLAYORDER=
